<svg xmlns:xlink="http://www.w3.org/1999/xlink" class="aside-svg" viewBox="0 0 24 24" xmlns="http://www.w3.org/2000/svg" width="24" height="24"><g id="SVGRepo_bgCarrier" stroke-width="0px" fill="#E40613"></g><g id="SVGRepo_tracerCarrier" stroke-linecap="round" stroke-linejoin="round" fill="#E40613"></g><g id="SVGRepo_iconCarrier" fill="#E40613"><path d="M19,4H17V3a1,1,0,0,0-2,0V4H9V3A1,1,0,0,0,7,3V4H5A3,3,0,0,0,2,7V19a3,3,0,0,0,3,3H19a3,3,0,0,0,3-3V7A3,3,0,0,0,19,4Zm1,15a1,1,0,0,1-1,1H5a1,1,0,0,1-1-1V12H20Zm0-9H4V7A1,1,0,0,1,5,6H7V7A1,1,0,0,0,9,7V6h6V7a1,1,0,0,0,2,0V6h2a1,1,0,0,1,1,1Z" fill="#E40613"></path></g></svg>